<svg width="40" height="36" viewBox="0 0 40 36" fill="none" xmlns="http://www.w3.org/2000/svg">
<path d="M16.9137 0.0623379C13.7413 0.400265 12.007 1.86461 11.423 4.672C11.2574 5.45182 11.0744 8.24188 11.1441 8.83108C11.2051 9.39429 11.4753 9.79287 11.9285 10.0095C12.3992 10.2434 12.7216 10.2348 13.201 9.99216C13.8808 9.65423 13.9505 9.46361 14.0202 7.79131C14.1858 3.91816 14.639 3.24231 17.2972 2.89572C18.4738 2.73975 32.6799 2.73975 33.8565 2.89572C36.0615 3.18165 36.7064 3.78819 37.0115 5.83307C37.1771 6.92483 37.1771 17.9637 37.0115 19.0555C36.7064 21.1177 36.0179 21.7502 33.8303 21.9755C33.3423 22.0275 31.3377 22.0968 29.3855 22.1315L25.8296 22.1922L25.4897 22.5474C24.9493 23.1279 24.9145 23.8818 25.4025 24.4363C25.8557 24.9475 25.786 24.9389 30.3006 24.8956C34.1354 24.8609 34.484 24.8436 35.2945 24.6703C37.6215 24.1591 39.0247 22.8853 39.6087 20.7451C39.9747 19.3761 40.0008 18.8476 40.0008 12.3576C39.9921 5.53847 39.9747 5.15722 39.4518 3.65822C38.8156 1.82995 37.4472 0.694866 35.2945 0.218304C34.4317 0.0190144 34.3794 0.0190144 26.0126 0.0016861C21.3847 -0.00697899 17.2885 0.0190144 16.9137 0.0623379Z" fill="#898787"/>
<path d="M19.2617 7.49787C18.3553 7.97443 18.3292 9.30014 19.2181 9.95866C19.4622 10.1406 19.5145 10.1406 25.5542 10.1406C31.594 10.1406 31.6463 10.1406 31.8903 9.95866C32.3261 9.63807 32.5266 9.25682 32.5266 8.72827C32.5266 8.13906 32.2913 7.73182 31.8206 7.49787C31.4981 7.33324 31.289 7.32458 25.5368 7.32458C19.8282 7.33324 19.5668 7.34191 19.2617 7.49787Z" fill="#898787"/>
<path d="M10.1924 13.0467C8.0136 13.5839 6.3141 15.2303 5.73016 17.3878C5.49485 18.2803 5.52971 19.8399 5.8086 20.6977C6.1485 21.7202 6.61042 22.4653 7.35123 23.1932C8.10947 23.9297 8.71083 24.3109 9.64338 24.6489C10.2273 24.8655 10.3842 24.8828 11.6305 24.8828C12.8768 24.8828 13.0337 24.8655 13.6176 24.6489C14.5501 24.3109 15.1515 23.9297 15.9097 23.1932C16.6506 22.4653 17.1125 21.7202 17.4524 20.6977C17.7313 19.8399 17.7661 18.2803 17.5308 17.3878C16.9382 15.1956 15.1777 13.5233 12.9639 13.0207C12.1621 12.8474 10.9768 12.8561 10.1924 13.0467ZM12.9552 16.0361C14.341 16.6946 15.0992 18.2283 14.7332 19.6406C14.4804 20.6024 13.9226 21.3043 12.9988 21.7895C12.5892 21.9974 12.4585 22.0234 11.6305 22.0234C10.8025 22.0234 10.6718 21.9974 10.2622 21.7895C9.33834 21.3043 8.78055 20.6024 8.52781 19.6406C8.13561 18.0983 9.02458 16.4866 10.6021 15.9061C11.2732 15.6635 12.2841 15.7155 12.9552 16.0361Z" fill="#898787"/>
<path d="M25.0434 14.7867C24.4943 15.012 24.1719 15.5232 24.1719 16.1731C24.1719 16.7363 24.4159 17.1435 24.8778 17.3775C25.1916 17.5421 25.4007 17.5508 28.3553 17.5508C31.3098 17.5508 31.519 17.5421 31.8327 17.3775C32.7653 16.9096 32.8001 15.5752 31.9024 14.9167C31.6584 14.7434 31.5538 14.7347 28.4598 14.7174C26.4553 14.7087 25.1829 14.7347 25.0434 14.7867Z" fill="#898787"/>
<path d="M21.1523 22.2924C20.8036 22.4657 20.6729 22.6476 20.2982 23.5054C19.845 24.5279 19.4876 25.0738 18.7817 25.7843C17.9973 26.5814 17.2303 26.9974 16.0102 27.3093C15.2345 27.5172 14.9295 27.5346 12.2887 27.6126C7.80899 27.7339 6.78929 27.8638 5.17694 28.479C3.78248 29.0162 2.266 30.2466 1.35089 31.5897C1.15043 31.8843 0.758239 32.5861 0.488062 33.1407C0.0697232 33.9985 0 34.2151 0 34.6397C0 35.1942 0.165592 35.4802 0.66237 35.8181C0.915116 35.9914 1.04585 36.0174 1.48162 35.9914C2.266 35.9394 2.43159 35.7921 2.97195 34.6397C3.99165 32.4908 5.16823 31.3991 7.01589 30.9052C8.05302 30.6279 8.80255 30.5672 11.6786 30.5066C13.169 30.4719 14.8336 30.3939 15.3914 30.3246C17.8143 30.03 19.5748 29.1982 21.0215 27.6645C21.7449 26.8847 22.1894 26.2175 22.782 25.0131C23.2004 24.1466 23.2701 23.9387 23.2701 23.5141C23.2614 22.9596 23.1045 22.6736 22.6164 22.3357C22.2678 22.1018 21.5793 22.0758 21.1523 22.2924Z" fill="#898787"/>
</svg>
