<svg width="21" height="20" viewBox="0 0 21 20" fill="none" xmlns="http://www.w3.org/2000/svg">
<path d="M0 6.15353V11.376H2.23096H4.45782L4.48653 11.6277C4.62186 12.957 4.31428 14.3861 3.70733 15.236C3.02656 16.1997 2.0054 16.6793 0.35679 16.817L0 16.8454V17.9564V19.0674H0.463416C1.96439 19.0674 3.66632 18.7825 4.87612 18.3315C7.12759 17.4911 8.46453 15.8816 8.85822 13.5363C9.00586 12.6484 9.02227 11.8888 9.02227 6.3292V0.931019H4.51113H0V6.15353Z" fill="#0C8462"/>
<path d="M11.9727 6.15353V11.376H14.2241H16.4756L16.5043 11.8366C16.5658 12.7624 16.4018 13.8449 16.0983 14.5475C15.4872 15.9529 14.3307 16.6555 12.3746 16.8122L11.9727 16.8454V17.9564V19.0674H12.4566C14.4743 19.0626 16.5494 18.6116 17.874 17.8804C19.5514 16.9499 20.4864 15.5873 20.8801 13.4888C20.9703 13.0188 20.9703 12.9665 20.9826 6.97014L20.999 0.931019H16.4838H11.9727V6.15353Z" fill="#0C8462"/>
</svg>
