<svg width="30" height="26" viewBox="0 0 30 26" fill="none" xmlns="http://www.w3.org/2000/svg">
<path d="M19.7647 0.294727C19.6533 0.306463 19.2544 0.347538 18.8848 0.382744C17.1602 0.541172 14.8254 1.06927 14.2212 1.43894C13.9103 1.62084 13.7812 1.9377 13.7812 2.4834V2.95868H14.4148C14.7609 2.95868 15.1422 2.98802 15.2595 3.01736C15.676 3.13472 15.7757 3.28141 16.4856 4.80115C16.8551 5.5933 17.1836 6.24462 17.2247 6.24462C17.2599 6.24462 17.4124 6.3385 17.5649 6.45586C17.911 6.71991 18.0811 6.77858 18.4448 6.77858C18.8086 6.77858 18.9787 6.71991 19.3189 6.45586C19.6767 6.18594 19.9114 6.14487 20.2458 6.29156C20.5743 6.43239 20.762 6.71991 20.762 7.0661C20.762 7.38296 20.6153 7.62354 20.2516 7.89346C19.7295 8.28659 19.2778 8.46849 18.6502 8.52717L18.2513 8.56238L19.0373 10.2347C19.4656 11.1559 19.8997 12.0889 19.9994 12.3119C20.1695 12.6874 20.1871 12.7109 20.3396 12.6757C21.4835 12.4175 22.428 12.4058 23.3138 12.6346C24.2934 12.8869 25.7658 13.8023 26.0063 14.3069C26.194 14.7059 26.0943 15.1519 25.7541 15.3924C25.3552 15.68 24.9856 15.6037 24.4401 15.1284C24.0236 14.7646 23.4252 14.4477 22.8738 14.3069C22.4104 14.1837 21.5011 14.1719 21.0612 14.2776C20.7561 14.3538 20.7503 14.3597 20.7854 14.5416C21.2078 16.5953 21.1902 18.4143 20.7327 20.2216C20.6916 20.3741 20.7033 20.38 21.1198 20.5032C21.9352 20.7497 22.8503 20.5854 24.2113 19.9399C27.1385 18.5669 29.1506 16.0085 29.8663 12.7578L30.0012 12.1417V7.00156V1.86142L29.8428 1.65018C29.6492 1.40373 29.1389 1.19249 28.0654 0.916708C26.2175 0.441422 24.9739 0.306463 22.1992 0.28886C20.9732 0.277124 19.8762 0.282991 19.7647 0.294727ZM24.8038 6.35611C25.2085 6.67883 25.449 6.78445 25.801 6.78445C26.1706 6.78445 26.417 6.6847 26.7279 6.41478C27.0916 6.09793 27.5843 6.139 27.9128 6.50867C28.2472 6.89007 28.212 7.34189 27.8131 7.72329C26.7513 8.76188 24.9856 8.79122 23.8828 7.79957C23.4135 7.37709 23.3431 6.93115 23.6775 6.53214C23.9825 6.17421 24.4811 6.09793 24.8038 6.35611Z" fill="#CA9C60"/>
<path d="M13.1754 4.7836C9.91382 5.20607 5.10356 7.26565 2.02383 9.55994C1.1967 10.1761 0.393033 10.8802 0.170119 11.1853C0.0293308 11.3848 0 11.4846 0 11.7662C0 12.0889 0.0879925 12.2943 1.81264 15.9734C3.98899 20.6148 3.9362 20.5033 4.46415 21.3013C5.0625 22.2049 6.2416 23.3726 7.15672 23.9829C9.03389 25.2209 11.0812 25.8019 13.2575 25.708C14.1785 25.6669 14.9353 25.5437 15.2755 25.3735C15.4045 25.309 15.7331 25.0684 15.997 24.8337C17.7979 23.2377 19.0005 20.9316 19.2997 18.5082C19.3759 17.8745 19.3759 16.6834 19.2997 16.0438C19.2117 15.3045 18.9184 14.1896 18.6251 13.4737C18.2848 12.6405 14.8179 5.26475 14.6713 5.06525C14.4308 4.73665 14.0729 4.67211 13.1754 4.7836ZM14.554 10.5516C14.9939 10.6513 15.2462 10.8039 15.3752 11.0562C15.5923 11.4552 15.4632 11.9481 15.0995 12.177C14.8825 12.306 14.7182 12.3178 14.0436 12.2591C13.6916 12.2239 13.5919 12.2356 13.3983 12.3354C13.1226 12.4762 12.9584 12.6522 12.8 12.9691C12.6592 13.2449 12.3835 13.5031 12.1664 13.5559C11.7675 13.6556 11.2572 13.3446 11.1457 12.9222C11.0636 12.617 11.1809 12.2532 11.5211 11.7662C12.2134 10.7687 13.4218 10.2817 14.554 10.5516ZM8.08944 13.7319C8.46487 13.8375 8.70539 14.0605 8.79338 14.3715C8.96936 15.0169 8.34169 15.6037 7.68467 15.4042C7.32097 15.2986 7.0218 15.3279 6.68743 15.4981C6.42932 15.6331 6.34132 15.7269 6.16534 16.0438C6.04215 16.255 5.8603 16.4839 5.75471 16.5543C5.22089 16.9122 4.45828 16.4956 4.45828 15.8443C4.45828 15.4864 4.76919 14.9055 5.19156 14.4888C5.97176 13.7084 7.02766 13.4327 8.08944 13.7319ZM15.6157 16.5836C16.044 16.8829 16.0792 17.323 15.7331 18.0506C14.5774 20.4622 11.879 21.7414 9.3096 21.0901C8.71125 20.9375 8.45901 20.7849 8.31822 20.5033C8.11877 20.1101 8.24196 19.6525 8.61739 19.406C8.86377 19.2417 9.05736 19.2358 9.64984 19.3884C10.2071 19.5292 11.0695 19.541 11.615 19.4119C12.2896 19.2535 12.8176 18.9483 13.3807 18.3909C13.8089 17.9684 13.9321 17.8041 14.1609 17.3288C14.3134 17.0178 14.4953 16.7069 14.5716 16.6364C14.8473 16.3783 15.299 16.3548 15.6157 16.5836Z" fill="#CA9C60"/>
</svg>
