<svg width="25" height="21" viewBox="0 0 25 21" fill="none" xmlns="http://www.w3.org/2000/svg">
<path d="M6.57822 2.6033C3.40962 3.71101 0.780064 4.65188 0.728504 4.69822C0.423832 4.96704 0.423832 5.52322 0.728504 5.79203C0.780064 5.83838 3.40025 6.78388 6.55478 7.89623C10.8624 9.4118 12.3436 9.91699 12.5029 9.91699C12.6623 9.91699 14.1013 9.4257 18.4089 7.91013C21.54 6.81169 24.1508 5.88009 24.2117 5.84302C24.5961 5.59737 24.5961 4.89288 24.2117 4.64724C24.0102 4.5221 12.6529 0.587169 12.4936 0.587169C12.4092 0.591804 9.74681 1.49559 6.57822 2.6033Z" fill="#075F70"/>
<path d="M22.4163 7.91459C22.2101 7.98875 21.8867 8.10462 21.7039 8.1695L21.3617 8.29001V11.0662V13.8425L21.1508 14.0325C20.8367 14.3199 20.6914 14.6536 20.6914 15.0707C20.6914 15.3627 20.7102 15.46 20.8414 15.7149C20.9305 15.9003 21.0617 16.0718 21.1742 16.1599L21.357 16.3036L21.3711 18.0972C21.3851 19.7935 21.3898 19.9001 21.4789 20.0485C21.6148 20.2756 21.7929 20.3868 22.0507 20.41C22.3273 20.4331 22.5569 20.3265 22.7069 20.1041C22.8147 19.9465 22.8147 19.9419 22.8147 18.125C22.8147 17.1054 22.8335 16.2989 22.8569 16.2989C22.9507 16.2989 23.3022 15.9003 23.41 15.664C23.5038 15.4647 23.5272 15.3349 23.5272 15.0661C23.5272 14.635 23.3866 14.3152 23.0585 14.0232L22.8382 13.8193L22.8147 10.8021L22.7913 7.78018L22.4163 7.91459Z" fill="#075F70"/>
<path d="M5.42578 10.5837C5.42578 12.2336 5.42578 12.2429 5.53828 12.4747C5.80545 13.0262 6.52729 13.4943 7.71317 13.8836C9.97243 14.6206 13.052 14.7874 15.6206 14.3054C17.683 13.9161 19.1126 13.2394 19.4688 12.4747C19.5813 12.2475 19.5813 12.2244 19.5813 10.5837C19.5813 9.67524 19.572 8.92904 19.5579 8.92904C19.5485 8.92904 18.433 9.31836 17.0877 9.79111C12.5317 11.3947 12.7004 11.3438 12.2129 11.2511C12.0723 11.2279 10.5021 10.6949 8.71625 10.0692C6.93508 9.4435 5.46328 8.92904 5.44922 8.92904C5.43516 8.92904 5.42578 9.67524 5.42578 10.5837Z" fill="#075F70"/>
</svg>
