<svg width="21" height="21" viewBox="0 0 21 21" fill="none" xmlns="http://www.w3.org/2000/svg">
<path d="M17.6875 0.52207C17.5039 0.529884 16.9414 0.561142 16.4375 0.592402C10.9141 0.955778 6.83984 2.14359 4.06641 4.19882C3.39453 4.69895 2.42969 5.66405 2 6.2775C1.18359 7.43405 0.703125 8.66094 0.535156 10.0402C0.46875 10.5872 0.511719 11.8532 0.609375 12.3338C0.78125 13.1465 1.17188 14.1389 1.38281 14.2718C1.51172 14.3578 1.74219 14.3656 1.88281 14.2874C1.94531 14.2562 2.10156 14.0491 2.26562 13.7834C4.63672 9.94643 7.46875 7.03942 10.7539 5.07405C11.3945 4.69114 12.2695 4.24571 12.3789 4.24571C12.5977 4.24571 12.8047 4.47233 12.8047 4.70677C12.8047 4.8865 12.6406 5.02326 12.0898 5.3124C8.65625 7.11365 5.26172 10.3958 2.85938 14.2366C1.4375 16.5068 0.5 18.7769 0.5 19.9413C0.5 20.2226 0.503906 20.2382 0.632812 20.3672C0.75 20.4844 0.789062 20.5 0.960938 20.5C1.22266 20.5 1.38281 20.3515 1.41406 20.078C1.53125 19.1051 1.83203 18.1947 2.5 16.8193L2.85547 16.0887L3.01562 16.2059C3.78125 16.7842 4.6875 17.2179 5.67578 17.4719C6.89062 17.7844 8.39844 17.8704 9.53906 17.6868C11.0859 17.4406 12.4844 16.6435 13.4453 15.4635C14.5312 14.1311 15.2227 12.4862 15.8516 9.73544C16.2031 8.18816 16.4727 7.32074 16.9062 6.29703C17.4062 5.12094 18.0898 3.97611 18.9258 2.92505C19.2773 2.47962 19.9453 1.72161 20.207 1.47154C20.4258 1.26055 20.5 1.1277 20.5 0.947964C20.5 0.764322 20.4375 0.639288 20.3047 0.561142C20.207 0.502533 20.0625 0.494719 19.1055 0.502533C18.5078 0.506441 17.8711 0.514256 17.6875 0.52207Z" fill="#075F70"/>
</svg>
