<svg width="56" height="48" viewBox="0 0 56 48" fill="none" xmlns="http://www.w3.org/2000/svg">
<path d="M36.888 0.0229263C36.6799 0.0450668 35.9352 0.122551 35.2452 0.188969C32.0252 0.487839 27.6663 1.48408 26.5382 2.18145C25.9577 2.5246 25.7168 3.12235 25.7168 4.1518V5.04842H26.8996C27.5458 5.04842 28.2577 5.10376 28.4767 5.15911C29.2543 5.3805 29.4405 5.65723 30.7657 8.5242C31.4557 10.0186 32.0691 11.2473 32.1457 11.2473C32.2114 11.2473 32.4962 11.4244 32.7809 11.6458C33.4271 12.1439 33.7447 12.2546 34.4238 12.2546C35.1028 12.2546 35.4204 12.1439 36.0556 11.6458C36.7237 11.1366 37.1618 11.0591 37.7861 11.3358C38.3994 11.6015 38.7499 12.1439 38.7499 12.797C38.7499 13.3947 38.4761 13.8486 37.797 14.3577C36.8223 15.0994 35.979 15.4425 34.8071 15.5532L34.0624 15.6197L35.5299 18.7744C36.3295 20.5123 37.1399 22.2723 37.3261 22.693C37.6437 23.4014 37.6766 23.4457 37.9613 23.3793C40.097 22.8922 41.8603 22.8701 43.5141 23.3018C45.3431 23.7778 48.0921 25.5046 48.5411 26.4566C48.8916 27.2093 48.7054 28.0505 48.0702 28.5044C47.3254 29.0468 46.6354 28.9029 45.6169 28.0063C44.8393 27.32 43.7222 26.7222 42.6927 26.4566C41.8274 26.2241 40.1299 26.202 39.3084 26.4012C38.7389 26.5451 38.728 26.5562 38.7937 26.8993C39.5822 30.7736 39.5494 34.2051 38.6951 37.6145C38.6185 37.9023 38.6404 37.9133 39.418 38.1458C40.9403 38.6107 42.6489 38.3008 45.1898 37.0831C50.6549 34.4929 54.4115 29.6667 55.7477 23.5342L55.9996 22.372V12.6752V2.97845L55.7038 2.57995C55.3424 2.11504 54.3896 1.71654 52.3853 1.19628C48.9354 0.29966 46.6135 0.0450668 41.4332 0.0118561C39.1442 -0.0102806 37.0961 0.000789642 36.888 0.0229263ZM46.2959 11.4576C47.0516 12.0664 47.5007 12.2656 48.1578 12.2656C48.8478 12.2656 49.3078 12.0775 49.8882 11.5683C50.5673 10.9705 51.4873 11.048 52.1006 11.7454C52.7249 12.4649 52.6591 13.3172 51.9144 14.0367C49.9321 15.996 46.6354 16.0514 44.5764 14.1806C43.7003 13.3836 43.5688 12.5424 44.1931 11.7897C44.7626 11.1144 45.6936 10.9705 46.2959 11.4576Z" fill="#ECECEC"/>
<path d="M24.5986 8.50815C18.5092 9.30515 9.5284 13.1905 3.7785 17.5186C2.23424 18.6809 0.733796 20.0092 0.317613 20.5848C0.0547609 20.9612 0 21.1494 0 21.6807C0 22.2895 0.164283 22.6769 3.38422 29.6174C7.44748 38.3733 7.34891 38.163 8.33461 39.6684C9.45173 41.3731 11.6531 43.5759 13.3617 44.7271C16.8664 47.0628 20.6887 48.1586 24.7519 47.9815C26.4714 47.904 27.8843 47.6716 28.5195 47.3506C28.7604 47.2288 29.3737 46.7749 29.8666 46.3322C33.2289 43.3213 35.4741 38.971 36.0327 34.3994C36.1751 33.2039 36.1751 30.9568 36.0327 29.7503C35.8684 28.3555 35.3208 26.2523 34.7732 24.9019C34.1379 23.33 27.6652 9.41584 27.3914 9.03948C26.9424 8.4196 26.2743 8.29783 24.5986 8.50815ZM27.1724 19.3893C27.9938 19.5775 28.4647 19.8653 28.7057 20.3413C29.1109 21.094 28.8699 22.0238 28.1909 22.4556C27.7857 22.6991 27.479 22.7212 26.2195 22.6105C25.5624 22.5441 25.3762 22.5662 25.0148 22.7544C24.5 23.0201 24.1934 23.3522 23.8977 23.9499C23.6348 24.4702 23.1201 24.9572 22.7148 25.0569C21.9701 25.245 21.0172 24.6584 20.8091 23.8614C20.6558 23.2858 20.8749 22.5995 21.5101 21.6807C22.8024 19.7989 25.0586 18.8801 27.1724 19.3893ZM15.1031 25.3889C15.804 25.5882 16.253 26.0088 16.4173 26.5955C16.7459 27.8131 15.574 28.9201 14.3474 28.5437C13.6683 28.3445 13.1098 28.3998 12.4855 28.7208C12.0036 28.9754 11.8393 29.1525 11.5107 29.7503C11.2807 30.1488 10.9412 30.5805 10.7441 30.7133C9.74744 31.3885 8.32366 30.6026 8.32366 29.3739C8.32366 28.6987 8.90412 27.6028 9.69268 26.8169C11.1493 25.3447 13.1207 24.8244 15.1031 25.3889ZM29.1547 30.7686C29.9542 31.3332 30.0199 32.1634 29.3737 33.536C27.2162 38.0855 22.1782 40.4986 17.3811 39.2699C16.264 38.9821 15.793 38.6943 15.5302 38.163C15.1578 37.4213 15.3878 36.5579 16.0888 36.093C16.5487 35.7831 16.9102 35.772 18.0163 36.0598C19.0568 36.3255 20.6668 36.3476 21.6853 36.1041C22.9448 35.8052 23.9305 35.2296 24.9819 34.178C25.7814 33.381 26.0114 33.0711 26.4386 32.1745C26.7233 31.5878 27.0628 31.0011 27.2052 30.8683C27.72 30.3812 28.5633 30.3369 29.1547 30.7686Z" fill="#ECECEC"/>
</svg>
