<svg width="23" height="17" viewBox="0 0 23 17" fill="none" xmlns="http://www.w3.org/2000/svg">
<path d="M3.09452 0.0669575C2.0653 0.332643 1.24732 1.16512 1.00013 2.18801C0.896758 2.63968 0.932713 3.3216 1.08552 3.75113C1.38215 4.58361 2.00688 5.20797 2.86081 5.52236C3.26531 5.66849 4.09677 5.70834 4.53273 5.60207C5.32824 5.40723 6.06083 4.82715 6.41139 4.11423C6.83387 3.26404 6.83387 2.39613 6.41139 1.54594C6.06083 0.837445 5.33723 0.257365 4.5552 0.0625291C4.21812 -0.0216045 3.42711 -0.0216045 3.09452 0.0669575Z" fill="#075F70"/>
<path d="M10.6634 0.0583696C9.25661 0.372764 8.14199 1.4355 7.76446 2.81264C7.63413 3.27759 7.62514 4.21634 7.74199 4.64587C7.93525 5.36765 8.22289 5.88573 8.7038 6.38168C9.76448 7.47542 11.2791 7.84295 12.7577 7.36472C13.7555 7.04589 14.7038 6.15585 15.0859 5.17724C15.2881 4.65915 15.3375 4.38461 15.333 3.76025C15.333 3.06061 15.2432 2.66651 14.96 2.10415C14.4971 1.17425 13.724 0.505607 12.7128 0.169072C12.3218 0.0362291 12.2319 0.0229449 11.6117 0.0140886C11.1532 0.000804424 10.8521 0.0185165 10.6634 0.0583696Z" fill="#075F70"/>
<path d="M18.4229 0.0623107C17.6588 0.266003 16.9308 0.854939 16.5847 1.54572C16.1667 2.38706 16.1712 3.25939 16.5892 4.11401C16.9352 4.82251 17.6633 5.39816 18.4678 5.60185C18.9038 5.71255 19.7353 5.6727 20.1398 5.52214C20.9937 5.20775 21.6364 4.56125 21.933 3.71548C22.0229 3.47194 22.0364 3.3391 22.0364 2.82987C22.0364 2.32064 22.0229 2.18779 21.933 1.94425C21.6319 1.09406 20.9982 0.45641 20.1398 0.137588C19.8881 0.0445986 19.7443 0.0224581 19.2544 0.0136018C18.8364 0.000317574 18.5982 0.0136018 18.4229 0.0623107Z" fill="#075F70"/>
<path d="M2.20566 6.66062C1.70228 6.76689 1.27532 7.01044 0.843852 7.43553C0.547222 7.72779 0.421378 7.8872 0.295535 8.14403C0.00339861 8.73296 -0.0100846 8.85695 0.00339862 10.4333L0.0168818 11.8415L0.142725 12.1027C0.389917 12.6297 0.798908 12.9839 1.33824 13.1478C1.58992 13.2275 1.75172 13.2363 2.74049 13.2363H3.8596V12.9884C3.8596 11.8592 4.40792 10.3271 5.17646 9.31747C5.56298 8.80381 6.21916 8.17059 6.68209 7.86063C6.86186 7.74107 7.00568 7.62594 7.00568 7.60823C7.00568 7.52852 6.4304 7.07686 6.15175 6.93073C5.57197 6.62962 5.32477 6.5942 3.81915 6.59862C2.87083 6.59862 2.40791 6.62076 2.20566 6.66062Z" fill="#075F70"/>
<path d="M17.4873 6.68276C17.0378 6.80232 16.5884 7.04586 16.2558 7.3514L15.9727 7.61266L16.085 7.69236C17.1457 8.423 17.9142 9.26876 18.4356 10.2916C18.8356 11.0798 19.0738 11.9478 19.1277 12.8024L19.1547 13.2363H20.2648C21.2491 13.2363 21.4109 13.2275 21.6626 13.1478C22.2019 12.9839 22.6109 12.6297 22.8581 12.1027L22.9839 11.8415L22.9974 10.4333C23.0109 8.85695 22.9974 8.73296 22.7053 8.14403C22.4806 7.68351 21.9098 7.12557 21.4289 6.89088C20.8805 6.62519 20.6468 6.5942 19.1412 6.59862C17.9861 6.59862 17.7749 6.61191 17.4873 6.68276Z" fill="#075F70"/>
<path d="M9.5223 8.5822C7.6706 8.97187 6.21891 10.411 5.83239 12.2398C5.72003 12.7623 5.71104 14.4317 5.81441 14.8657C6.00318 15.6583 6.58296 16.3491 7.39644 16.752C7.89532 16.9956 7.9133 17 11.4998 17C15.1493 17 15.0954 17.0044 15.6706 16.7166C16.4302 16.3402 17.001 15.6361 17.1898 14.8435C17.3021 14.3741 17.2572 12.5011 17.1268 12.0317C16.628 10.2339 15.1897 8.90545 13.3875 8.56892C12.8167 8.46264 10.0571 8.4715 9.5223 8.5822Z" fill="#075F70"/>
</svg>
