<svg width="42" height="42" viewBox="0 0 42 42" fill="none" xmlns="http://www.w3.org/2000/svg">
<path d="M1.64415 0.183029C1.29731 0.301754 1.0235 0.484409 0.7223 0.804054C-0.0626381 1.61687 0.00125225 0.10997 0.00125225 18.686C0.00125225 36.7962 -0.0261293 36.0108 0.558011 37.4081C1.29731 39.1707 2.59337 40.5315 4.31841 41.326C5.79702 42.011 4.40968 41.9562 21.5597 41.9836C38.7553 42.0201 37.6509 42.0566 39.0382 41.3717C40.4621 40.6684 41.5117 39.2803 41.8494 37.6729C42.0502 36.7048 42.0502 10.2108 41.8494 9.53495C41.676 8.94132 41.1557 8.33856 40.5807 8.07372C40.1244 7.86366 40.0696 7.85453 37.1306 7.85453H34.1369V4.85899C34.1369 1.91825 34.1278 1.86345 33.9179 1.40681C33.7992 1.16023 33.5254 0.794922 33.3064 0.612267C32.5488 -0.0361557 33.6349 0.00037384 17.0782 0.00037384C2.67552 0.00950623 2.12789 0.00950623 1.64415 0.183029ZM27.0542 7.94585C27.5015 8.04631 27.83 8.28377 28.0674 8.68561C28.2408 8.98699 28.2499 9.16051 28.2499 14.2018V19.4074L28.0308 19.7545C27.9213 19.9463 27.6658 20.1837 27.465 20.275C27.1181 20.4577 26.9265 20.4577 16.9869 20.4394C6.92879 20.412 6.85577 20.412 6.60021 20.2203C6.4633 20.1198 6.25338 19.8549 6.13472 19.6266L5.93392 19.2248L5.95218 14.0465C5.97956 8.98699 5.97956 8.86826 6.17123 8.62168C6.42679 8.2655 6.77362 8.02805 7.12959 7.94585C7.56769 7.84539 26.6161 7.83626 27.0542 7.94585ZM38.9561 23.9921L38.9287 37.2163L38.7279 37.5907C37.9065 39.125 36.1084 39.4355 34.9219 38.2391C34.6663 37.9743 34.3925 37.5998 34.3195 37.3989C34.2099 37.0884 34.1826 35.1066 34.1552 23.9007L34.1369 10.777H36.5556H38.9743L38.9561 23.9921ZM27.4741 24.6496C27.6475 24.741 27.8939 24.951 28.0035 25.1245C28.186 25.3802 28.2134 25.5264 28.186 25.9647C28.1495 26.3848 28.0947 26.5401 27.8757 26.7684C27.3463 27.3347 27.9396 27.3073 17.0873 27.3073H7.15697L6.75537 27.0972C6.45417 26.9511 6.28988 26.7867 6.13472 26.4853C5.77876 25.8004 5.97043 25.1519 6.6641 24.677L6.9653 24.4761H17.06C26.7165 24.4761 27.1729 24.4852 27.4741 24.6496ZM19.716 30.5128C20.6469 31.0334 20.6743 32.2481 19.7707 32.9148C19.5243 33.1065 19.4239 33.1065 13.3452 33.1339L7.16609 33.1522L6.75537 32.9513C6.45417 32.796 6.28988 32.6316 6.13472 32.3303C5.77876 31.6453 5.97043 30.9969 6.6641 30.522L6.9653 30.3211H13.1718C19.3144 30.3211 19.3783 30.3211 19.716 30.5128Z" fill="#E6EFFF"/>
</svg>
