<svg width="22" height="22" viewBox="0 0 22 22" fill="none" xmlns="http://www.w3.org/2000/svg">
<path d="M0.861219 0.0958729C0.679545 0.158062 0.536117 0.253738 0.378348 0.421171C-0.0328104 0.84693 0.000655941 0.0576019 0.000655941 9.78788C0.000655941 19.2742 -0.0136868 18.8628 0.292291 19.5947C0.679545 20.518 1.35843 21.2308 2.26203 21.647C3.03653 22.0057 2.30983 21.977 11.2932 21.9914C20.3004 22.0105 19.7219 22.0297 20.4486 21.6709C21.1944 21.3025 21.7442 20.5754 21.9211 19.7334C22.0263 19.2263 22.0263 5.3485 21.9211 4.9945C21.8303 4.68355 21.5578 4.36782 21.2566 4.22909C21.0175 4.11906 20.9888 4.11428 19.4494 4.11428H17.8812V2.54519C17.8812 1.0048 17.8765 0.976095 17.7665 0.736904C17.7044 0.60774 17.5609 0.416388 17.4462 0.320711C17.0494 -0.01894 17.6183 0.000196457 8.94573 0.000196457C1.40146 0.00498009 1.11461 0.00498009 0.861219 0.0958729ZM14.1713 4.16212C14.4055 4.21474 14.5776 4.33912 14.7019 4.5496C14.7928 4.70747 14.7976 4.79836 14.7976 7.43903V10.1658L14.6828 10.3476C14.6255 10.448 14.4916 10.5724 14.3864 10.6203C14.2047 10.7159 14.1043 10.7159 8.89792 10.7064C3.62936 10.692 3.59112 10.692 3.45725 10.5916C3.38554 10.5389 3.27558 10.4002 3.21343 10.2806L3.10825 10.0701L3.11781 7.3577C3.13215 4.70747 3.13215 4.64528 3.23255 4.51612C3.36641 4.32955 3.54809 4.20517 3.73454 4.16212C3.96403 4.10949 13.9418 4.10471 14.1713 4.16212ZM20.4056 12.5673L20.3912 19.4942L20.286 19.6904C19.8558 20.4941 18.9139 20.6567 18.2924 20.03C18.1585 19.8913 18.0151 19.6952 17.9769 19.5899C17.9195 19.4273 17.9052 18.3892 17.8908 12.5194L17.8812 5.6451H19.1482H20.4151L20.4056 12.5673ZM14.3912 12.9117C14.482 12.9595 14.6111 13.0696 14.6685 13.1605C14.7641 13.2944 14.7784 13.371 14.7641 13.6006C14.745 13.8206 14.7163 13.902 14.6015 14.0216C14.3243 14.3182 14.635 14.3038 8.95051 14.3038H3.74889L3.53853 14.1938C3.38076 14.1172 3.2947 14.0311 3.21343 13.8733C3.02697 13.5145 3.12737 13.1748 3.49072 12.9261L3.64849 12.8208H8.93617C13.9944 12.8208 14.2334 12.8256 14.3912 12.9117ZM10.3274 15.9829C10.8151 16.2556 10.8294 16.8918 10.3561 17.2411C10.227 17.3415 10.1744 17.3415 6.99034 17.3559L3.75367 17.3654L3.53853 17.2602C3.38076 17.1789 3.2947 17.0928 3.21343 16.9349C3.02697 16.5761 3.12737 16.2365 3.49072 15.9877L3.64849 15.8825H6.8995C10.1171 15.8825 10.1505 15.8825 10.3274 15.9829Z" fill="#3858F5"/>
</svg>
