<svg width="48" height="40" viewBox="0 0 48 40" fill="none" xmlns="http://www.w3.org/2000/svg">
<path d="M0 11.5183V23.0366H5.0988H10.1882L10.2538 23.5916C10.5631 26.5236 9.86017 29.6754 8.473 31.5497C6.91712 33.6754 4.58329 34.733 0.815433 35.0366L0 35.0995V37.5497V40H1.05913C4.48957 40 8.37927 39.3717 11.1442 38.377C16.2899 36.5236 19.3454 32.9738 20.2452 27.801C20.5826 25.8429 20.6201 24.1675 20.6201 11.9058V0H10.3101H0V11.5183Z" fill="#CBE6DF"/>
<path d="M27.3711 11.5183V23.0366H32.5168H37.6624L37.728 24.0524C37.8686 26.0942 37.4937 28.4817 36.8001 30.0314C35.4036 33.1309 32.7604 34.6806 28.2896 35.0262L27.3711 35.0995V37.5497V40H28.4771C33.0885 39.9895 37.8311 38.9948 40.8585 37.3822C44.692 35.3298 46.829 32.3246 47.7288 27.6963C47.935 26.6597 47.935 26.5445 47.9631 13.3194L48.0006 0H37.6812H27.3711V11.5183Z" fill="#CBE6DF"/>
</svg>
