<svg width="23" height="19" viewBox="0 0 23 19" fill="none" xmlns="http://www.w3.org/2000/svg">
<path d="M19.261 0.574259C19.0925 0.660841 19.0363 0.770207 19.0363 1.01172C19.0363 1.21679 19.1253 1.36717 19.2938 1.44919C19.3453 1.47197 19.6401 1.54033 19.9491 1.59501C20.258 1.64969 20.5388 1.71349 20.5763 1.73172C20.6184 1.7545 20.4546 1.88665 20.0614 2.15096C19.7431 2.36513 19.041 2.8345 18.4981 3.19449C17.9598 3.55905 17.3373 3.97829 17.1173 4.12411C16.6071 4.46588 15.3901 5.28157 14.8472 5.65068C14.6178 5.80562 14.3183 6.00612 14.1826 6.0927L13.9438 6.25219L11.3133 5.08562C9.31471 4.20158 8.63603 3.91905 8.50029 3.91905C8.34115 3.91905 7.78415 4.22892 4.47496 6.16106C1.56362 7.86079 0.618137 8.43041 0.566651 8.5261C0.458996 8.73572 0.482399 8.9499 0.632179 9.10483C0.777278 9.25977 0.955141 9.31901 1.12364 9.28255C1.17981 9.26433 2.86951 8.2937 4.87749 7.11801L8.53305 4.98081L11.1495 6.14283C12.6614 6.8127 13.8502 7.3094 13.9579 7.32307C14.1357 7.34586 14.1919 7.31852 14.9174 6.83548C15.3433 6.55751 15.8395 6.22485 16.0174 6.10182C16.1999 5.97878 16.6399 5.68258 17.0003 5.44106C17.3607 5.2041 17.8147 4.89879 18.0066 4.76663C18.353 4.53423 19.4997 3.76411 20.6044 3.02133C20.9133 2.81627 21.1707 2.66589 21.1801 2.68867C21.1894 2.71146 21.1426 2.99855 21.0724 3.32664C20.9507 3.9236 20.9507 3.9236 21.0396 4.09221C21.1613 4.32006 21.3954 4.41119 21.6575 4.33373C21.7605 4.30639 21.8775 4.23347 21.9149 4.17423C21.9851 4.07398 22.5 1.68615 22.5 1.47197C22.5 1.32615 22.3783 1.10742 22.266 1.04818C22.1536 0.98894 19.6776 0.501348 19.5091 0.501348C19.4389 0.505905 19.3312 0.533247 19.261 0.574259Z" fill="#075F70"/>
<path d="M18.3562 6.39777C18.1316 6.49347 17.9069 6.70309 17.8133 6.90359C17.729 7.07675 17.7244 7.34106 17.7244 12.2899V17.4985H16.9989H16.2734V14.0534C16.2734 11.5699 16.2593 10.5537 16.2172 10.4307C16.1423 10.1846 15.8896 9.91116 15.6508 9.82003C15.4823 9.75623 15.2624 9.75167 14.1577 9.76079L12.8659 9.77446L12.6646 9.91116C12.557 9.98407 12.4165 10.139 12.3557 10.2484L12.248 10.4489V13.9759V17.4985H11.4991H10.7502V13.2468V8.99066L10.6426 8.79016C10.5817 8.68079 10.4413 8.52586 10.3337 8.45295L10.1324 8.31624L8.84055 8.30257C7.73593 8.29345 7.51594 8.29801 7.34743 8.36181C7.10872 8.45295 6.85597 8.72636 6.78108 8.97244C6.73896 9.10003 6.72491 10.2848 6.72491 13.3243V17.4985H5.99942H5.27392V14.7278C5.27392 12.1304 5.26456 11.9527 5.18499 11.7795C5.07266 11.5471 4.94628 11.415 4.70757 11.301C4.52971 11.2099 4.45482 11.2053 3.20041 11.219L1.88048 11.2327L1.68389 11.3694C1.5622 11.4514 1.43582 11.5927 1.36561 11.7294L1.2486 11.9572V14.7278V17.4985H1.08477C0.541823 17.4985 0.293751 18.1 0.705645 18.419C0.799257 18.4964 1.43582 18.501 11.5038 18.501H22.2037L22.3254 18.3916C22.6858 18.0681 22.4331 17.4985 21.9322 17.4985H21.7497V12.2899C21.7497 7.32283 21.745 7.07675 21.6607 6.90359C21.5531 6.6803 21.3612 6.49802 21.1318 6.40689C20.8978 6.31119 18.5762 6.30208 18.3562 6.39777Z" fill="#075F70"/>
</svg>
