<svg width="23" height="23" viewBox="0 0 23 23" fill="none" xmlns="http://www.w3.org/2000/svg">
<path d="M10.8583 1.41695V2.83168L10.6736 2.9215C10.3041 3.10115 9.94757 3.46943 9.76285 3.86016L9.65115 4.08921H5.72038H1.79391V4.76289V5.43657H2.58436H3.37911L3.2803 5.69257C3.22445 5.83629 3.0698 6.236 2.93233 6.58183C2.79486 6.92765 2.62302 7.37228 2.5457 7.56989C2.46837 7.7675 2.31801 8.15824 2.20632 8.4322C2.09892 8.71065 1.92279 9.15528 1.81969 9.42026C1.36002 10.597 1.12375 11.1988 0.926135 11.7018C0.444991 12.9189 0.432103 13.0132 0.591053 13.6824C0.737114 14.2977 0.981982 14.7378 1.45024 15.2274C1.78102 15.5732 1.92708 15.69 2.2235 15.8472C2.87219 16.1885 3.11276 16.2244 4.48745 16.2065C5.64735 16.1885 5.69031 16.1885 6.02539 16.0672C6.5409 15.8876 6.88028 15.6585 7.31417 15.2049C7.75665 14.7423 8.00581 14.2887 8.15188 13.6824C8.27646 13.1614 8.26787 12.8381 8.10462 12.4383C8.03159 12.2542 7.66214 11.3155 7.2841 10.3544C6.90606 9.38882 6.32611 7.91571 5.99532 7.07586C5.66454 6.236 5.3853 5.5219 5.37241 5.49047C5.35523 5.45005 5.79771 5.43657 7.50319 5.43657H9.65545L9.78433 5.70155C9.94328 6.0339 10.2612 6.36625 10.6006 6.55488L10.8583 6.6986L10.8497 11.4862L10.8368 16.2738L10.6091 16.3322C10.317 16.4131 9.84877 16.6556 9.55664 16.8801C8.98528 17.3203 8.51273 18.0703 8.34949 18.7844L8.32371 18.9102H11.5027H14.6817L14.6559 18.7844C14.3981 17.6436 13.4487 16.6152 12.3834 16.3322L12.1686 16.2738L12.1557 11.4862L12.1471 6.6986L12.4134 6.55039C12.7399 6.37074 13.0406 6.05187 13.2211 5.69706L13.3542 5.43657H15.4979H17.6416L17.5428 5.69257C17.4869 5.83629 17.3323 6.236 17.1948 6.58183C17.0573 6.92765 16.8855 7.37228 16.8082 7.56989C16.7308 7.7675 16.5805 8.15824 16.4688 8.4322C16.3614 8.71065 16.1853 9.15528 16.0821 9.42026C15.6225 10.597 15.3862 11.1988 15.1886 11.7018C14.7075 12.9189 14.6946 13.0132 14.8535 13.6824C14.9996 14.2977 15.2444 14.7378 15.7127 15.2274C16.0435 15.5732 16.1895 15.69 16.486 15.8472C17.1346 16.1885 17.3752 16.2244 18.7499 16.2065C19.9098 16.1885 19.9528 16.1885 20.2879 16.0672C20.8034 15.8876 21.1427 15.6585 21.5766 15.2049C22.0191 14.7423 22.2683 14.2887 22.4143 13.6824C22.5389 13.1614 22.5303 12.8381 22.3671 12.4383C22.2941 12.2542 21.9246 11.3155 21.5466 10.3544C21.1685 9.38882 20.5886 7.91571 20.2578 7.07586C19.927 6.236 19.6478 5.5219 19.6349 5.49047C19.6177 5.45005 19.7895 5.43657 20.4124 5.43657H21.2115V4.76289V4.08921H17.2807H13.3499L13.2984 3.96346C13.2254 3.7928 12.9461 3.36164 12.8473 3.2808C12.7098 3.15954 12.3877 2.94396 12.2674 2.88557L12.1471 2.83168V1.41695V0.00222778H11.5027H10.8583V1.41695ZM5.26931 8.83641C6.14998 11.0461 6.23589 11.2661 6.47217 11.8365L6.60105 12.1509L5.48411 12.1644C4.87409 12.1689 3.87314 12.1689 3.26312 12.1644L2.15047 12.1509L3.25023 9.39781C3.85166 7.88876 4.35858 6.64919 4.37146 6.64919C4.38865 6.64919 4.79246 7.63277 5.26931 8.83641ZM19.5318 8.83641C20.4124 11.0461 20.4984 11.2661 20.7346 11.8365L20.8635 12.1509L19.7466 12.1644C19.1366 12.1689 18.1356 12.1689 17.5256 12.1644L16.4129 12.1509L17.5127 9.39781C18.1141 7.88876 18.621 6.64919 18.6339 6.64919C18.6511 6.64919 19.0549 7.63277 19.5318 8.83641Z" fill="#075F70"/>
<path d="M6.97042 20.3607C6.51505 20.5404 6.17997 20.8323 5.94799 21.2545C5.76327 21.5823 5.70312 21.8877 5.70312 22.4671V22.9971H11.5069H17.3107L17.2935 22.3548C17.2806 21.7306 17.2763 21.7126 17.1303 21.4027C16.937 20.9985 16.5976 20.6392 16.2067 20.4371L15.9059 20.2799L11.5671 20.2709L7.22818 20.2619L6.97042 20.3607Z" fill="#075F70"/>
</svg>
