<svg width="21" height="21" viewBox="0 0 21 21" fill="none" xmlns="http://www.w3.org/2000/svg">
<path d="M9.18978 0.0554008C7.5937 0.252388 6.04685 0.826927 4.71336 1.71336C2.64543 3.08816 1.13962 5.09905 0.433896 7.43825C0.265672 7.97996 0.10155 8.80484 0.0400046 9.35886C-0.0133349 9.87184 -0.0133349 11.1276 0.0400046 11.6406C0.483133 15.8019 3.42501 19.3559 7.43778 20.5706C8.43072 20.8702 9.4934 21.022 10.4248 20.9974C10.9418 20.9851 10.991 20.9769 11.2413 20.8579C11.8814 20.5501 12.2671 19.9427 12.2671 19.241C12.2671 18.8183 12.1399 18.49 11.828 18.0837C11.3644 17.4804 11.27 16.8115 11.5572 16.1959C11.7993 15.6829 12.3204 15.3013 12.8907 15.2192C13.0343 15.1987 13.7154 15.1781 14.4129 15.1781C15.7752 15.1781 16.1403 15.1412 16.8091 14.9483C18.8688 14.3533 20.4362 12.6625 20.9039 10.5408C20.9942 10.1263 21.0311 8.91564 20.9696 8.36162C20.785 6.75701 20.1162 5.19754 19.0494 3.87199C18.635 3.35901 17.8554 2.6039 17.3384 2.21403C15.7587 1.02391 13.9001 0.293427 11.8568 0.0554008C11.229 -0.0184669 9.79292 -0.0184669 9.18978 0.0554008ZM8.10247 2.44385C8.89846 2.69419 9.41955 3.52727 9.28415 4.33163C9.12003 5.27552 8.25018 5.91982 7.33521 5.77619C6.19866 5.59562 5.54628 4.40139 6.02634 3.37543C6.39971 2.57107 7.26545 2.18531 8.10247 2.44385ZM13.8672 2.42333C14.3227 2.53413 14.7617 2.90759 14.9792 3.37543C15.4592 4.40139 14.8068 5.59562 13.6744 5.77619C12.7553 5.91982 11.8855 5.27552 11.7214 4.33163C11.586 3.53137 12.1029 2.69829 12.903 2.44385C13.2354 2.33715 13.4857 2.33305 13.8672 2.42333ZM4.44256 7.07301C5.52577 7.30282 6.10429 8.47653 5.62834 9.49018C5.34934 10.0893 4.7585 10.4587 4.0815 10.4587C2.83828 10.4587 2.00536 9.17418 2.51824 8.05383C2.76852 7.50391 3.24448 7.14688 3.85583 7.04018C4.04867 7.00735 4.16356 7.01145 4.44256 7.07301ZM17.4492 7.11405C17.7077 7.19202 18.0605 7.43004 18.237 7.64344C18.795 8.32469 18.7581 9.33013 18.1549 9.9375C17.798 10.2986 17.4164 10.4587 16.924 10.4587C16.4316 10.4587 16.0542 10.3027 15.7095 9.95802C15.1597 9.4081 15.0448 8.50936 15.4387 7.88147C15.89 7.1674 16.6573 6.87602 17.4492 7.11405Z" fill="#075F70"/>
</svg>
