<svg width="21" height="21" viewBox="0 0 21 21" fill="none" xmlns="http://www.w3.org/2000/svg">
<path d="M14.4914 0.0478621C13.769 0.175185 12.9439 0.507869 12.3281 0.922697C11.8889 1.21842 11.4004 1.67842 9.06877 4.01953L6.92188 6.1676L9.54084 8.7839L12.1557 11.4043L12.3404 11.2564C12.9849 10.743 13.9291 10.2912 14.7706 10.0941C15.8297 9.84766 17.1638 9.94624 18.2146 10.3487L18.4897 10.4514L19.0356 9.85588C19.9387 8.87015 20.2138 8.48818 20.5216 7.81049C20.8706 7.03423 21.0183 6.24564 20.9896 5.34616C20.9486 4.23311 20.6612 3.32541 20.066 2.43826C19.2942 1.28002 18.19 0.503762 16.8148 0.142327C16.3879 0.0273256 16.273 0.0150042 15.5834 0.00268269C15.0538 -0.00553226 14.7213 0.00678921 14.4914 0.0478621Z" fill="#075F70"/>
<path d="M3.6524 9.44086C2.0022 11.1043 1.20173 11.938 1.03753 12.168C0.573669 12.8252 0.245272 13.5768 0.0769682 14.3613C-0.0256561 14.8542 -0.0256561 16.0453 0.0769682 16.5381C0.553144 18.7683 2.22797 20.4441 4.45697 20.9205C4.99061 21.0355 6.30831 21.0232 6.82143 20.9C7.3756 20.7685 7.83946 20.5919 8.30743 20.325C8.84518 20.021 9.23515 19.7089 9.89605 19.0476L10.4256 18.5137L10.3312 18.2549C10.1916 17.8689 10.052 17.339 9.99457 16.9694C9.92479 16.5012 9.933 15.5647 10.011 15.1211C10.1834 14.1518 10.6021 13.1866 11.1768 12.4309L11.3164 12.2502L8.71793 9.65033C7.2894 8.22102 6.09896 7.05047 6.07433 7.05047C6.0538 7.05047 4.96188 8.12655 3.6524 9.44086Z" fill="#075F70"/>
<path d="M14.9882 11.2814C14.5613 11.38 14.04 11.5689 13.6992 11.7578C12.3733 12.4848 11.4251 13.8114 11.1829 15.2777C11.1213 15.6597 11.1213 16.514 11.1829 16.8959C11.4579 18.5553 12.6278 20.0174 14.1877 20.6417C14.4833 20.7608 14.9882 20.9005 15.3084 20.9539L15.4603 20.9785V16.0868C15.4603 11.458 15.4562 11.1992 15.3905 11.2034C15.3494 11.2034 15.1688 11.2403 14.9882 11.2814Z" fill="#075F70"/>
<path d="M16.6484 16.0907V20.9824L16.825 20.9537C18.4546 20.6949 19.8914 19.6065 20.5687 18.1238C21.1434 16.8588 21.1434 15.3145 20.5687 14.0495C20.0227 12.8501 18.9226 11.8562 17.6747 11.4332C17.4038 11.3387 16.8085 11.199 16.6895 11.199C16.6608 11.199 16.6484 12.7269 16.6484 16.0907Z" fill="#075F70"/>
</svg>
