<svg width="23" height="23" viewBox="0 0 23 23" fill="none" xmlns="http://www.w3.org/2000/svg">
<path d="M5.98388 0.583805C5.70894 0.768536 5.70034 0.798607 5.70034 1.9929V3.0755L4.91847 3.08839C4.18385 3.10128 4.1194 3.10987 3.91749 3.20868C3.64255 3.34186 3.34182 3.64258 3.20865 3.91752C3.10984 4.11944 3.10125 4.18388 3.08836 4.9142L3.07547 5.70038H1.99287C0.798574 5.70038 0.768502 5.70897 0.583773 5.98392C0.472076 6.15146 0.472076 6.5381 0.583773 6.70565C0.768502 6.98059 0.798574 6.98919 1.99717 6.98919H3.07977V7.63359V8.27799H1.99717C0.798574 8.27799 0.768502 8.28659 0.583773 8.56153C0.472076 8.72908 0.472076 9.11572 0.583773 9.28327C0.768502 9.55821 0.798574 9.5668 1.99717 9.5668H3.07977V10.2112V10.8556H1.99717C0.798574 10.8556 0.768502 10.8642 0.583773 11.1391C0.472076 11.3067 0.472076 11.6933 0.583773 11.8609C0.768502 12.1358 0.798574 12.1444 1.99717 12.1444H3.07977V12.7888V13.4332H1.99717C0.798574 13.4332 0.768502 13.4418 0.583773 13.7168C0.472076 13.8843 0.472076 14.271 0.583773 14.4385C0.768502 14.7134 0.798574 14.722 1.99717 14.722H3.07977V15.3664V16.0108H1.99717C0.798574 16.0108 0.768502 16.0194 0.583773 16.2944C0.472076 16.4619 0.472076 16.8486 0.583773 17.0161C0.768502 17.2911 0.798574 17.2997 1.99287 17.2997H3.07547L3.08836 18.0815C3.10125 18.8162 3.10984 18.8806 3.20865 19.0825C3.34182 19.3575 3.64255 19.6582 3.91749 19.7914C4.1194 19.8902 4.18385 19.8988 4.91847 19.9116L5.70034 19.9288V21.0071C5.70034 22.2014 5.70894 22.2315 5.98388 22.4162C6.15143 22.5279 6.53807 22.5279 6.70561 22.4162C6.98056 22.2315 6.98915 22.2014 6.98915 21.0028V19.9202H7.63356H8.27796V21.0028C8.27796 22.2014 8.28655 22.2315 8.5615 22.4162C8.72904 22.5279 9.11569 22.5279 9.28323 22.4162C9.55818 22.2315 9.56677 22.2014 9.56677 21.0028V19.9202H10.2112H10.8556V21.0028C10.8556 22.2014 10.8642 22.2315 11.1391 22.4162C11.3067 22.5279 11.6933 22.5279 11.8609 22.4162C12.1358 22.2315 12.1444 22.2014 12.1444 21.0028V19.9202H12.7888H13.4332V21.0028C13.4332 22.2014 13.4418 22.2315 13.7167 22.4162C13.8843 22.5279 14.2709 22.5279 14.4385 22.4162C14.7134 22.2315 14.722 22.2014 14.722 21.0028V19.9202H15.3664H16.0108V21.0028C16.0108 22.2014 16.0194 22.2315 16.2944 22.4162C16.4619 22.5279 16.8485 22.5279 17.0161 22.4162C17.291 22.2315 17.2996 22.2014 17.2996 21.0071V19.9288L18.0858 19.9116C18.8161 19.8988 18.8806 19.8902 19.0825 19.7914C19.3574 19.6582 19.6581 19.3575 19.7913 19.0825C19.8901 18.8806 19.8987 18.8162 19.9116 18.0815L19.9245 17.2997H21.0071C22.2014 17.2997 22.2315 17.2911 22.4162 17.0161C22.5279 16.8486 22.5279 16.4619 22.4162 16.2944C22.2315 16.0194 22.2014 16.0108 21.0071 16.0108H19.9202V15.3664V14.722H21.0071C22.2014 14.722 22.2315 14.7134 22.4162 14.4385C22.5279 14.271 22.5279 13.8843 22.4162 13.7168C22.2315 13.4418 22.2014 13.4332 21.0071 13.4332H19.9202V12.7888V12.1444H21.0071C22.2014 12.1444 22.2315 12.1358 22.4162 11.8609C22.5279 11.6933 22.5279 11.3067 22.4162 11.1391C22.2315 10.8642 22.2014 10.8556 21.0071 10.8556H19.9202V10.2112V9.5668H21.0071C22.2014 9.5668 22.2315 9.55821 22.4162 9.28327C22.5279 9.11572 22.5279 8.72908 22.4162 8.56153C22.2315 8.28659 22.2014 8.27799 21.0071 8.27799H19.9202V7.63359V6.98919H21.0071C22.2014 6.98919 22.2315 6.98059 22.4162 6.70565C22.5279 6.5381 22.5279 6.15146 22.4162 5.98392C22.2315 5.70897 22.2014 5.70038 21.0071 5.70038H19.9245L19.9116 4.9142C19.8987 4.18388 19.8901 4.11944 19.7913 3.91752C19.6581 3.64258 19.3574 3.34186 19.0825 3.20868C18.8806 3.10987 18.8161 3.10128 18.0858 3.08839L17.2996 3.0755V1.9929C17.2996 1.00482 17.291 0.901712 17.218 0.785719C17.0848 0.588102 16.9216 0.502182 16.6552 0.502182C16.3889 0.502182 16.2256 0.588102 16.0924 0.785719C16.0194 0.901712 16.0108 1.00482 16.0108 1.9929V3.0798H15.3664H14.722V1.9929C14.722 0.798607 14.7134 0.768536 14.4385 0.583805C14.2709 0.472109 13.8843 0.472109 13.7167 0.583805C13.4418 0.768536 13.4332 0.798607 13.4332 1.9929V3.0798H12.7888H12.1444V1.9929C12.1444 0.798607 12.1358 0.768536 11.8609 0.583805C11.6933 0.472109 11.3067 0.472109 11.1391 0.583805C10.8642 0.768536 10.8556 0.798607 10.8556 1.9929V3.0798H10.2112H9.56677V1.9929C9.56677 0.798607 9.55818 0.768536 9.28323 0.583805C9.11569 0.472109 8.72904 0.472109 8.5615 0.583805C8.28655 0.768536 8.27796 0.798607 8.27796 1.9929V3.0798H7.63356H6.98915V1.9929C6.98915 1.00482 6.98056 0.901712 6.90753 0.785719C6.77435 0.588102 6.6111 0.502182 6.34475 0.502182C6.18579 0.502182 6.0698 0.527958 5.98388 0.583805ZM16.9989 5.77341C17.0805 5.82496 17.1879 5.93236 17.2352 6.00969C17.3211 6.15146 17.3211 6.22879 17.3211 11.5C17.3211 16.7712 17.3211 16.8486 17.2352 16.9903C17.1879 17.0677 17.0805 17.1751 16.9989 17.2266L16.8485 17.3211H11.5H6.15143L6.00107 17.2266C5.91944 17.1751 5.81204 17.0677 5.76478 16.9903C5.67886 16.8486 5.67886 16.7712 5.67886 11.5C5.67886 6.46507 5.68316 6.14287 5.75619 6.01399C5.84211 5.85074 5.98818 5.74763 6.18579 5.70038C6.25883 5.6789 8.69038 5.67031 11.5859 5.67031L16.8485 5.6789L16.9989 5.77341Z" fill="#075F70"/>
<path d="M6.94531 11.4999V16.0537H11.4991H16.0529V11.4999V6.94613H11.4991H6.94531V11.4999Z" fill="#075F70"/>
</svg>
